<?xml version="1.0" standalone="no"?>
<!DOCTYPE svg PUBLIC "-//W3C//DTD SVG 20010904//EN"
 "http://www.w3.org/TR/2001/REC-SVG-20010904/DTD/svg10.dtd">
<svg version="1.0" xmlns="http://www.w3.org/2000/svg"
 width="30.000000pt" height="30.000000pt" viewBox="0 0 30.000000 30.000000"
 preserveAspectRatio="xMidYMid meet">

<g transform="translate(0.000000,30.000000) scale(0.100000,-0.100000)"
fill="#000000" stroke="none">
<path d="M60 175 c0 -96 -3 -115 -15 -115 -8 0 -15 -3 -15 -7 0 -5 45 -7 99
-5 97 3 100 3 104 -20 3 -15 5 -11 6 14 0 20 9 50 19 67 16 30 16 32 0 62 -10
17 -18 51 -18 75 l0 44 -90 0 -90 0 0 -115z m169 68 c-2 -31 -3 -33 -6 -10 -4
27 -5 27 -79 27 -43 0 -74 4 -74 10 0 6 33 10 80 10 l80 0 -1 -37z m-19 -18
c0 -18 -5 -25 -19 -25 -11 0 -23 -4 -26 -10 -3 -5 -25 -11 -48 -12 -37 -1 -38
-2 -9 -5 28 -4 32 -8 32 -33 0 -33 44 -74 72 -67 10 3 18 1 18 -4 0 -5 -36 -9
-80 -9 l-80 0 0 43 c0 23 3 66 6 95 l7 52 63 0 c62 0 64 -1 64 -25z m-15 -55
c-3 -5 1 -10 9 -10 9 0 16 5 16 11 0 8 5 8 15 -1 31 -26 11 -70 -32 -70 -29 0
-48 33 -33 60 6 11 15 20 21 20 6 0 7 -4 4 -10z"/>
<path d="M190 130 c0 -11 7 -20 15 -20 8 0 15 9 15 20 0 11 -7 20 -15 20 -8 0
-15 -9 -15 -20z"/>
<path d="M87 33 c18 -2 50 -2 70 0 21 2 7 4 -32 4 -38 0 -55 -2 -38 -4z"/>
</g>
</svg>
