<?xml version="1.0" standalone="no"?>
<!DOCTYPE svg PUBLIC "-//W3C//DTD SVG 20010904//EN"
 "http://www.w3.org/TR/2001/REC-SVG-20010904/DTD/svg10.dtd">
<svg version="1.0" xmlns="http://www.w3.org/2000/svg"
 width="30.000000pt" height="30.000000pt" viewBox="0 0 30.000000 30.000000"
 preserveAspectRatio="xMidYMid meet">

<g transform="translate(0.000000,30.000000) scale(0.100000,-0.100000)"
fill="#000000" stroke="none">
<path d="M88 198 c-9 -7 -19 -24 -23 -37 -7 -23 -7 -23 16 -7 30 21 55 20 68
-1 9 -16 10 -16 11 3 0 21 -28 54 -46 54 -6 0 -17 -6 -26 -12z"/>
<path d="M61 61 c-34 -34 -26 -41 49 -41 63 0 70 2 70 20 0 27 -38 47 -47 25
-5 -13 -7 -14 -14 -3 -7 10 -9 8 -9 -7 -1 -18 -2 -18 -14 4 l-13 24 -22 -22z"/>
</g>
</svg>
